<svg version="1.1" id="Layer_1" xmlns="http://www.w3.org/2000/svg" xmlns:xlink="http://www.w3.org/1999/xlink" x="0px" y="0px"
	 width="100%" viewBox="0 0 496 496" enable-background="new 0 0 496 496" xml:space="preserve">
<path fill="#000000" opacity="1.000000" stroke="none" 
	d="
M286.844147,371.829590 
	C284.385345,364.907379 285.305237,357.910919 283.875458,351.256683 
	C280.125580,333.804352 264.319031,321.609100 247.699371,323.282288 
	C229.379913,325.126587 216.624268,339.125336 216.237946,357.809814 
	C215.713455,383.176941 196.304169,404.172760 170.947845,404.734589 
	C142.815826,405.357910 123.050537,383.767029 122.680595,360.194183 
	C122.338417,338.390533 109.431770,324.190125 87.764854,322.122223 
	C65.106430,319.959686 47.921852,301.775024 47.788048,279.010529 
	C47.551018,238.683777 47.552761,198.353897 47.764103,158.026947 
	C47.882450,135.444275 65.778511,116.794914 88.377655,115.872910 
	C109.302444,115.019234 130.079086,129.667145 133.511322,152.381104 
	C133.937378,155.200607 134.200577,157.984360 134.200699,160.817520 
	C134.202423,199.479111 134.137573,238.140930 134.251251,276.802216 
	C134.298416,292.845612 146.017166,307.515320 161.251038,311.158813 
	C181.311737,315.956787 201.250336,302.688873 204.698181,282.354584 
	C205.397797,278.228546 205.679901,274.121460 205.675751,269.948029 
	C205.639359,233.452820 205.637970,196.957520 205.665878,160.462280 
	C205.684906,135.587906 222.851685,116.968758 247.706100,116.326553 
	C271.878143,115.701981 291.055359,134.645538 291.251648,157.330063 
	C291.581879,195.488922 291.336273,233.652695 291.353455,271.814392 
	C291.362915,292.912048 302.464478,309.583893 322.140228,317.031372 
	C351.376831,328.097778 383.228821,306.787018 384.724243,277.366333 
	C385.785187,256.493683 403.154755,239.048508 423.607513,237.752182 
	C445.892517,236.339722 465.631622,250.648254 470.002930,271.383270 
	C475.214935,296.106110 456.387390,321.306152 431.146973,323.151672 
	C422.907776,323.754150 414.900452,324.817352 407.781677,329.420074 
	C396.966980,336.412476 391.588348,346.634766 391.413239,359.219482 
	C391.111420,380.915344 373.362457,405.562714 344.865845,409.701202 
	C320.520386,413.236816 296.276917,398.289062 287.765076,374.580811 
	C287.483948,373.797882 287.218109,373.009430 286.844147,371.829590 
z"/>
<path fill="#000000" opacity="1.000000" stroke="none" 
	d="
M421.796753,200.548645 
	C400.907410,195.521057 388.593719,182.561752 386.439819,161.878586 
	C384.496368,143.216446 395.709961,121.975197 420.627686,116.887337 
	C446.874420,111.528130 472.029724,131.748627 471.862518,158.573746 
	C471.675995,188.493851 444.517731,204.870880 421.796753,200.548645 
M443.782135,177.333267 
	C446.626770,175.323547 448.398346,172.499481 449.989136,169.520813 
	C438.728760,178.296616 426.284088,181.343399 411.115753,177.015213 
	C420.000946,185.014832 432.456787,184.848801 443.782135,177.333267 
z"/>
</svg>