<?xml version="1.0" standalone="no"?>
<!DOCTYPE svg PUBLIC "-//W3C//DTD SVG 20010904//EN"
 "http://www.w3.org/TR/2001/REC-SVG-20010904/DTD/svg10.dtd">
<svg version="1.0" xmlns="http://www.w3.org/2000/svg"
 width="192.000000pt" height="192.000000pt" viewBox="0 0 192.000000 192.000000"
 preserveAspectRatio="xMidYMid meet">

<g transform="translate(0.000000,192.000000) scale(0.100000,-0.100000)"
fill="#000000" stroke="none">
<path d="M233 1460 c-67 -40 -68 -45 -71 -343 -3 -255 -2 -270 18 -310 26 -54
58 -76 124 -87 103 -17 149 -59 162 -150 8 -58 26 -91 64 -123 71 -60 156 -54
226 17 36 35 43 49 49 98 13 101 65 151 158 152 75 0 134 -55 144 -135 19
-145 147 -216 265 -146 52 30 88 91 88 148 0 40 29 91 63 114 14 8 50 20 80
25 70 11 89 21 123 66 79 103 11 248 -117 248 -84 0 -140 -54 -152 -147 -8
-56 -37 -116 -70 -139 -91 -64 -213 -32 -258 66 -17 37 -19 70 -19 301 0 242
-1 262 -20 293 -32 53 -75 74 -143 69 -51 -3 -62 -8 -95 -40 l-37 -37 -6 -293
c-3 -160 -6 -293 -7 -294 -80 -101 -153 -126 -242 -80 -25 12 -55 37 -67 56
-22 33 -23 41 -23 300 0 301 -6 328 -72 369 -46 28 -121 29 -165 2z"/>
<path d="M1532 1460 c-100 -61 -95 -207 9 -260 50 -26 86 -25 139 3 138 73 86
277 -70 277 -27 0 -58 -8 -78 -20z m140 -201 c-43 -38 -99 -40 -139 -4 l-28
25 36 -16 c43 -19 95 -13 131 15 36 30 37 13 0 -20z"/>
</g>
</svg>
